<?xml version="1.0" encoding="UTF-8"?>
<svg xmlns="http://www.w3.org/2000/svg" xmlns:xlink="http://www.w3.org/1999/xlink" width="30pt" height="29pt" viewBox="0 0 30 29" version="1.1">
<g id="surface1">
<path style=" stroke:none;fill-rule:nonzero;fill:rgb(0%,0%,0%);fill-opacity:1;" d="M 16.238281 5.398438 C 14.710938 5.589844 13.535156 6.074219 12.335938 7.019531 C 11.417969 7.734375 10.558594 8.976562 10.179688 10.125 C 10.027344 10.597656 9.890625 11.222656 9.890625 11.457031 L 9.890625 11.605469 L 14.75 11.605469 L 14.808594 11.386719 C 15.160156 10 15.910156 8.890625 17.058594 8.0625 C 18.15625 7.265625 19.710938 6.851562 21.03125 6.996094 C 21.316406 7.023438 21.554688 7.046875 21.5625 7.039062 C 21.570312 7.035156 21.394531 6.902344 21.183594 6.75 C 19.960938 5.878906 18.617188 5.429688 17.109375 5.394531 C 16.734375 5.382812 16.339844 5.390625 16.238281 5.398438 Z M 16.238281 5.398438 "/>
<path style=" stroke:none;fill-rule:nonzero;fill:rgb(0%,0%,0%);fill-opacity:1;" d="M 22.097656 7.535156 C 23.054688 8.503906 23.710938 9.769531 23.945312 11.101562 L 24.027344 11.605469 L 26.234375 11.605469 L 26.203125 11.464844 C 26.039062 10.753906 25.742188 10.085938 25.3125 9.457031 C 24.519531 8.3125 23.15625 7.398438 21.84375 7.132812 C 21.664062 7.097656 21.664062 7.101562 22.097656 7.535156 Z M 22.097656 7.535156 "/>
<path style=" stroke:none;fill-rule:nonzero;fill:rgb(0%,0%,0%);fill-opacity:1;" d="M 7.40625 15.695312 L 7.40625 19.328125 L 8.460938 19.328125 L 8.460938 15.695312 L 8.457031 12.066406 L 7.40625 12.066406 Z M 7.40625 15.695312 "/>
<path style=" stroke:none;fill-rule:nonzero;fill:rgb(0%,0%,0%);fill-opacity:1;" d="M 20.363281 12.578125 L 20.363281 13.089844 L 21.484375 13.089844 L 21.464844 12.585938 L 21.449219 12.09375 L 20.363281 12.0625 Z M 20.363281 12.578125 "/>
<path style=" stroke:none;fill-rule:nonzero;fill:rgb(0%,0%,0%);fill-opacity:1;" d="M 3.714844 13.957031 C 3.046875 14.097656 2.359375 14.632812 2.058594 15.257812 C 1.65625 16.085938 1.65625 17.335938 2.0625 18.128906 C 2.359375 18.714844 2.902344 19.183594 3.46875 19.351562 C 4.4375 19.636719 5.511719 19.386719 6.136719 18.726562 C 6.289062 18.566406 6.4375 18.378906 6.46875 18.3125 C 6.53125 18.179688 6.488281 18.128906 6.015625 17.808594 C 5.8125 17.675781 5.808594 17.675781 5.753906 17.765625 C 5.722656 17.824219 5.554688 18.007812 5.375 18.179688 C 4.988281 18.550781 4.710938 18.640625 4.121094 18.601562 C 3.375 18.550781 2.914062 18.070312 2.773438 17.1875 L 2.734375 16.976562 L 6.71875 16.976562 L 6.71875 16.75 C 6.71875 15.507812 6.203125 14.582031 5.261719 14.132812 C 4.933594 13.976562 4.824219 13.949219 4.417969 13.933594 C 4.152344 13.921875 3.839844 13.933594 3.714844 13.957031 Z M 4.890625 14.898438 C 5.039062 14.964844 5.21875 15.082031 5.300781 15.164062 C 5.480469 15.347656 5.648438 15.722656 5.691406 16.011719 L 5.722656 16.234375 L 4.257812 16.222656 C 3.449219 16.21875 2.777344 16.203125 2.765625 16.1875 C 2.75 16.175781 2.78125 16.035156 2.828125 15.863281 C 2.925781 15.542969 3.195312 15.140625 3.410156 15 C 3.8125 14.746094 4.457031 14.699219 4.890625 14.898438 Z M 4.890625 14.898438 "/>
<path style=" stroke:none;fill-rule:nonzero;fill:rgb(0%,0%,0%);fill-opacity:1;" d="M 11.105469 13.964844 C 10.476562 14.082031 9.757812 14.644531 9.46875 15.25 C 9.042969 16.121094 9.066406 17.382812 9.511719 18.246094 C 9.945312 19.097656 11.03125 19.609375 12.03125 19.445312 C 13.40625 19.214844 14.238281 17.988281 14.09375 16.398438 C 14.027344 15.613281 13.832031 15.128906 13.390625 14.667969 C 12.800781 14.046875 11.992188 13.792969 11.105469 13.964844 Z M 12.074219 14.847656 C 12.425781 14.96875 12.671875 15.175781 12.84375 15.480469 C 13.070312 15.894531 13.136719 16.257812 13.105469 16.878906 C 13.085938 17.328125 13.054688 17.460938 12.921875 17.742188 C 12.628906 18.355469 12.128906 18.65625 11.503906 18.59375 C 10.648438 18.507812 10.15625 17.816406 10.15625 16.703125 C 10.15625 16.101562 10.246094 15.738281 10.476562 15.390625 C 10.804688 14.894531 11.507812 14.652344 12.074219 14.847656 Z M 12.074219 14.847656 "/>
<path style=" stroke:none;fill-rule:nonzero;fill:rgb(0%,0%,0%);fill-opacity:1;" d="M 16.65625 13.976562 C 15.820312 14.214844 15.136719 14.929688 14.929688 15.792969 C 14.808594 16.300781 14.816406 17.183594 14.9375 17.632812 C 15.21875 18.652344 15.910156 19.300781 16.871094 19.445312 C 17.523438 19.542969 18.148438 19.378906 18.554688 19.003906 L 18.722656 18.847656 L 18.722656 19.34375 C 18.722656 20.371094 18.300781 20.859375 17.40625 20.859375 C 16.828125 20.859375 16.460938 20.652344 16.175781 20.164062 C 16.089844 20.011719 16 19.898438 15.984375 19.902344 C 15.9375 19.929688 15.265625 20.3125 15.242188 20.328125 C 15.234375 20.332031 15.285156 20.453125 15.359375 20.59375 C 15.886719 21.601562 17.371094 22.015625 18.539062 21.480469 C 19.074219 21.234375 19.410156 20.828125 19.605469 20.222656 C 19.695312 19.941406 19.703125 19.679688 19.703125 17 L 19.703125 14.085938 L 19.242188 14.070312 L 18.777344 14.054688 L 18.777344 14.289062 C 18.777344 14.417969 18.761719 14.519531 18.746094 14.519531 C 18.722656 14.519531 18.628906 14.449219 18.523438 14.363281 C 18.074219 13.976562 17.253906 13.808594 16.65625 13.976562 Z M 18.050781 14.941406 C 18.3125 15.078125 18.589844 15.421875 18.671875 15.6875 C 18.738281 15.9375 18.738281 17.558594 18.664062 17.8125 C 18.542969 18.242188 17.957031 18.609375 17.402344 18.609375 C 16.363281 18.609375 15.757812 17.804688 15.832031 16.519531 C 15.882812 15.570312 16.273438 15.007812 17.003906 14.820312 C 17.273438 14.75 17.8125 14.8125 18.050781 14.941406 Z M 18.050781 14.941406 "/>
<path style=" stroke:none;fill-rule:nonzero;fill:rgb(0%,0%,0%);fill-opacity:1;" d="M 24.066406 13.964844 C 23.445312 14.082031 22.726562 14.644531 22.441406 15.234375 C 22.226562 15.675781 22.144531 16.070312 22.152344 16.71875 C 22.152344 17.648438 22.390625 18.304688 22.917969 18.816406 C 23.953125 19.816406 25.878906 19.636719 26.589844 18.472656 C 26.714844 18.261719 26.921875 17.699219 26.921875 17.566406 C 26.921875 17.53125 26.757812 17.464844 26.539062 17.417969 C 26.328125 17.367188 26.101562 17.316406 26.039062 17.300781 C 25.9375 17.277344 25.917969 17.292969 25.917969 17.375 C 25.917969 17.597656 25.695312 18.054688 25.476562 18.269531 C 25.207031 18.535156 24.886719 18.636719 24.46875 18.59375 C 23.917969 18.542969 23.496094 18.210938 23.265625 17.660156 C 23.160156 17.398438 23.144531 17.269531 23.144531 16.695312 C 23.144531 16.117188 23.160156 15.988281 23.265625 15.726562 C 23.660156 14.777344 24.796875 14.472656 25.5 15.128906 C 25.6875 15.308594 25.769531 15.4375 25.84375 15.671875 C 25.894531 15.839844 25.9375 15.984375 25.9375 15.988281 C 25.941406 15.988281 26.144531 15.960938 26.394531 15.921875 C 26.640625 15.886719 26.851562 15.851562 26.863281 15.851562 C 26.875 15.851562 26.867188 15.757812 26.851562 15.644531 C 26.785156 15.132812 26.308594 14.484375 25.796875 14.1875 C 25.351562 13.9375 24.667969 13.851562 24.066406 13.964844 Z M 24.066406 13.964844 "/>
<path style=" stroke:none;fill-rule:nonzero;fill:rgb(0%,0%,0%);fill-opacity:1;" d="M 20.417969 16.695312 L 20.417969 19.328125 L 21.421875 19.328125 L 21.421875 14.058594 L 20.417969 14.058594 Z M 20.417969 16.695312 "/>
<path style=" stroke:none;fill-rule:nonzero;fill:rgb(0%,0%,0%);fill-opacity:1;" d="M 27.589844 18.359375 C 27.28125 18.617188 27.265625 18.980469 27.546875 19.28125 C 27.714844 19.464844 28.074219 19.53125 28.296875 19.417969 C 28.480469 19.320312 28.667969 19.035156 28.667969 18.839844 C 28.667969 18.648438 28.476562 18.355469 28.296875 18.269531 C 28.058594 18.152344 27.789062 18.1875 27.589844 18.359375 Z M 28.398438 18.484375 C 28.597656 18.671875 28.59375 19.015625 28.386719 19.207031 C 28.269531 19.320312 28.191406 19.351562 28.007812 19.351562 C 27.820312 19.351562 27.742188 19.320312 27.625 19.207031 C 27.359375 18.953125 27.449219 18.492188 27.792969 18.351562 C 27.964844 18.277344 28.253906 18.339844 28.398438 18.484375 Z M 28.398438 18.484375 "/>
<path style=" stroke:none;fill-rule:nonzero;fill:rgb(0%,0%,0%);fill-opacity:1;" d="M 27.769531 18.839844 C 27.769531 19.140625 27.785156 19.222656 27.84375 19.222656 C 27.890625 19.222656 27.925781 19.164062 27.9375 19.054688 L 27.953125 18.890625 L 28.046875 19.054688 C 28.101562 19.148438 28.175781 19.222656 28.222656 19.222656 C 28.292969 19.222656 28.292969 19.207031 28.222656 19.074219 C 28.148438 18.941406 28.148438 18.921875 28.21875 18.867188 C 28.328125 18.773438 28.316406 18.574219 28.195312 18.507812 C 28.136719 18.484375 28.023438 18.457031 27.933594 18.457031 L 27.769531 18.457031 Z M 28.128906 18.707031 C 28.101562 18.832031 27.925781 18.847656 27.925781 18.722656 C 27.925781 18.671875 27.941406 18.617188 27.957031 18.59375 C 28.015625 18.539062 28.144531 18.621094 28.128906 18.707031 Z M 28.128906 18.707031 "/>
<path style=" stroke:none;fill-rule:nonzero;fill:rgb(0%,0%,0%);fill-opacity:1;" d="M 20.050781 20.957031 C 19.6875 21.308594 20.074219 21.925781 20.496094 21.65625 C 20.636719 21.566406 20.671875 21.441406 20.5625 21.414062 C 20.527344 21.398438 20.457031 21.433594 20.417969 21.488281 C 20.21875 21.722656 19.945312 21.398438 20.121094 21.140625 C 20.21875 21 20.320312 20.976562 20.417969 21.089844 C 20.484375 21.171875 20.628906 21.199219 20.628906 21.125 C 20.628906 21.027344 20.484375 20.910156 20.332031 20.878906 C 20.203125 20.855469 20.136719 20.875 20.050781 20.957031 Z M 20.050781 20.957031 "/>
<path style=" stroke:none;fill-rule:nonzero;fill:rgb(0%,0%,0%);fill-opacity:1;" d="M 20.964844 20.910156 C 20.90625 20.933594 20.824219 21.023438 20.785156 21.109375 C 20.613281 21.519531 21.035156 21.894531 21.382812 21.628906 C 21.578125 21.480469 21.585938 21.167969 21.394531 20.988281 C 21.261719 20.855469 21.15625 20.835938 20.964844 20.910156 Z M 21.304688 21.074219 C 21.339844 21.109375 21.367188 21.207031 21.367188 21.300781 C 21.367188 21.597656 21.097656 21.671875 20.949219 21.417969 C 20.882812 21.296875 20.882812 21.269531 20.960938 21.148438 C 21.0625 21.003906 21.199219 20.972656 21.304688 21.074219 Z M 21.304688 21.074219 "/>
<path style=" stroke:none;fill-rule:nonzero;fill:rgb(0%,0%,0%);fill-opacity:1;" d="M 21.738281 21.296875 C 21.738281 21.644531 21.753906 21.730469 21.816406 21.730469 C 21.875 21.730469 21.898438 21.648438 21.90625 21.386719 C 21.921875 21.09375 21.9375 21.039062 22.023438 21.023438 C 22.167969 21 22.214844 21.101562 22.214844 21.433594 C 22.214844 21.65625 22.234375 21.730469 22.292969 21.730469 C 22.351562 21.730469 22.375 21.648438 22.382812 21.382812 C 22.398438 21.054688 22.40625 21.039062 22.53125 21.039062 C 22.660156 21.039062 22.664062 21.054688 22.679688 21.382812 C 22.691406 21.648438 22.710938 21.730469 22.769531 21.730469 C 22.832031 21.730469 22.847656 21.652344 22.847656 21.382812 C 22.847656 21.089844 22.828125 21.015625 22.738281 20.9375 C 22.648438 20.855469 22.605469 20.851562 22.472656 20.894531 C 22.355469 20.941406 22.277344 20.941406 22.1875 20.902344 C 22.09375 20.859375 22.039062 20.859375 21.976562 20.910156 C 21.921875 20.953125 21.898438 20.957031 21.898438 20.917969 C 21.898438 20.886719 21.859375 20.859375 21.816406 20.859375 C 21.753906 20.859375 21.738281 20.941406 21.738281 21.296875 Z M 21.738281 21.296875 "/>
<path style=" stroke:none;fill-rule:nonzero;fill:rgb(0%,0%,0%);fill-opacity:1;" d="M 23.0625 21.296875 C 23.0625 21.648438 23.078125 21.730469 23.140625 21.730469 C 23.203125 21.730469 23.21875 21.664062 23.21875 21.429688 C 23.21875 21.117188 23.304688 20.972656 23.457031 21.035156 C 23.515625 21.054688 23.535156 21.148438 23.535156 21.398438 C 23.535156 21.652344 23.550781 21.730469 23.617188 21.730469 C 23.667969 21.730469 23.695312 21.648438 23.707031 21.417969 C 23.722656 21.085938 23.804688 20.96875 23.980469 21.027344 C 24.042969 21.054688 24.066406 21.132812 24.066406 21.398438 C 24.066406 21.65625 24.082031 21.730469 24.144531 21.730469 C 24.207031 21.730469 24.222656 21.65625 24.222656 21.398438 C 24.222656 20.941406 24.039062 20.757812 23.742188 20.917969 C 23.664062 20.957031 23.617188 20.953125 23.558594 20.90625 C 23.5 20.859375 23.445312 20.859375 23.351562 20.902344 C 23.273438 20.9375 23.21875 20.941406 23.21875 20.910156 C 23.21875 20.878906 23.183594 20.859375 23.140625 20.859375 C 23.078125 20.859375 23.0625 20.941406 23.0625 21.296875 Z M 23.0625 21.296875 "/>
<path style=" stroke:none;fill-rule:nonzero;fill:rgb(0%,0%,0%);fill-opacity:1;" d="M 24.515625 20.988281 C 24.230469 21.257812 24.445312 21.78125 24.816406 21.710938 C 25.035156 21.667969 25.144531 21.574219 25.070312 21.503906 C 25.035156 21.46875 24.996094 21.472656 24.953125 21.515625 C 24.835938 21.628906 24.542969 21.554688 24.542969 21.414062 C 24.542969 21.390625 24.675781 21.371094 24.832031 21.371094 C 25.109375 21.371094 25.125 21.367188 25.125 21.242188 C 25.125 21.085938 24.90625 20.859375 24.753906 20.859375 C 24.695312 20.859375 24.582031 20.917969 24.515625 20.988281 Z M 24.902344 21.074219 C 25 21.171875 24.976562 21.207031 24.773438 21.226562 C 24.566406 21.253906 24.5 21.203125 24.59375 21.089844 C 24.675781 21 24.816406 20.992188 24.902344 21.074219 Z M 24.902344 21.074219 "/>
<path style=" stroke:none;fill-rule:nonzero;fill:rgb(0%,0%,0%);fill-opacity:1;" d="M 25.28125 21.296875 C 25.28125 21.648438 25.296875 21.730469 25.363281 21.730469 C 25.417969 21.730469 25.441406 21.667969 25.441406 21.46875 C 25.441406 21.183594 25.507812 21.015625 25.625 21.015625 C 25.667969 21.015625 25.707031 20.976562 25.707031 20.9375 C 25.707031 20.84375 25.679688 20.84375 25.542969 20.910156 C 25.472656 20.949219 25.441406 20.949219 25.441406 20.910156 C 25.441406 20.886719 25.402344 20.859375 25.363281 20.859375 C 25.296875 20.859375 25.28125 20.941406 25.28125 21.296875 Z M 25.28125 21.296875 "/>
<path style=" stroke:none;fill-rule:nonzero;fill:rgb(0%,0%,0%);fill-opacity:1;" d="M 25.992188 20.910156 C 25.832031 20.972656 25.730469 21.234375 25.796875 21.4375 C 25.878906 21.730469 26.3125 21.816406 26.449219 21.570312 C 26.535156 21.414062 26.402344 21.347656 26.285156 21.488281 C 26.179688 21.617188 26.050781 21.582031 25.960938 21.402344 C 25.910156 21.300781 25.917969 21.25 25.992188 21.140625 C 26.089844 21 26.191406 20.976562 26.308594 21.089844 C 26.398438 21.175781 26.5 21.191406 26.5 21.117188 C 26.5 21.027344 26.292969 20.859375 26.195312 20.867188 C 26.144531 20.867188 26.054688 20.886719 25.992188 20.910156 Z M 25.992188 20.910156 "/>
<path style=" stroke:none;fill-rule:nonzero;fill:rgb(0%,0%,0%);fill-opacity:1;" d="M 26.769531 20.992188 C 26.605469 21.191406 26.621094 21.488281 26.792969 21.621094 C 26.964844 21.75 27.121094 21.761719 27.285156 21.648438 C 27.449219 21.535156 27.355469 21.457031 27.148438 21.535156 C 27.015625 21.582031 26.964844 21.582031 26.902344 21.53125 C 26.753906 21.414062 26.804688 21.371094 27.105469 21.371094 C 27.382812 21.371094 27.398438 21.367188 27.398438 21.242188 C 27.398438 21.074219 27.175781 20.859375 27.007812 20.859375 C 26.925781 20.859375 26.832031 20.917969 26.769531 20.992188 Z M 27.175781 21.074219 C 27.277344 21.171875 27.25 21.207031 27.046875 21.226562 C 26.84375 21.253906 26.773438 21.203125 26.867188 21.089844 C 26.949219 21 27.089844 20.992188 27.175781 21.074219 Z M 27.175781 21.074219 "/>
</g>
</svg>
